PathFileType	4	(X/Y/Z)	s09c0201.trc
DataRate	CameraRate	NumFrames	NumMarkers	Units	OrigDataRate	OrigDataStartFrame	OrigNumFrames
200	200	6	50	mm	200	1000	2000
Frame#	Time	racr			lacr			c7			jug			rlel			rdr			llel			ldr			s2			lic			ric			lasi			rasi			rpsi			lpsi			rgt			lgt			rth1			rth2			rth3			rth4			rlfc			rmfc			rsh1			rsh2			rsh3			rsh4			rlmal			rmmal			rcal			rtoe			rmt5			lth1			lth2			lth4			lth3			llfc			lmfc			llmal			lmmal			lcal			lmt5			lsh1			lsh2			lsh3			lsh4			ltoe			SBIKE			LBIKE			RBIKE			
		X1	Y1	Z1	X2	Y2	Z2	X3	Y3	Z3	X4	Y4	Z4	X5	Y5	Z5	X6	Y6	Z6	X7	Y7	Z7	X8	Y8	Z8	X9	Y9	Z9	X10	Y10	Z10	X11	Y11	Z11	X12	Y12	Z12	X13	Y13	Z13	X14	Y14	Z14	X15	Y15	Z15	X16	Y16	Z16	X17	Y17	Z17	X18	Y18	Z18	X19	Y19	Z19	X20	Y20	Z20	X21	Y21	Z21	X22	Y22	Z22	X23	Y23	Z23	X24	Y24	Z24	X25	Y25	Z25	X26	Y26	Z26	X27	Y27	Z27	X28	Y28	Z28	X29	Y29	Z29	X30	Y30	Z30	X31	Y31	Z31	X32	Y32	Z32	X33	Y33	Z33	X34	Y34	Z34	X35	Y35	Z35	X36	Y36	Z36	X37	Y37	Z37	X38	Y38	Z38	X39	Y39	Z39	X40	Y40	Z40	X41	Y41	Z41	X42	Y42	Z42	X43	Y43	Z43	X44	Y44	Z44	X45	Y45	Z45	X46	Y46	Z46	X47	Y47	Z47	X48	Y48	Z48	X49	Y49	Z49	X50	Y50	Z50	
1000	5.0000	474.859772	1236.420741	-29.893789	544.956346	1185.709410	-367.797058	493.642935	1292.178731	-200.818111	466.060761	1160.647151	-199.812350	478.755871	1015.471961	91.799540	673.832501	907.658380	-20.463562	461.169658	1011.229967	-565.665687	660.477801	900.637051	-485.460648	9.255303	1124.688153	-276.720418	159.092936	1112.048723	-404.204442	127.604201	1144.547623	-108.979970	195.219996	1063.103139	-370.969041	176.517731	1091.115320	-118.828235	29.887148	1162.948378	-217.096554	41.327238	1160.540202	-326.012826	118.849932	1010.340952	-62.655825	135.820784	976.440483	-436.447357	239.545863	934.448593	-58.075947	323.429233	908.885673	-59.409416	379.333522	840.704758	-60.429893	342.082815	932.607201	-80.436337	451.481020	759.755493	-88.003614	449.679668	738.759858	-184.537300	409.880713	661.250146	-59.103170	412.654052	572.585233	-74.795704	371.309377	495.977764	-76.881831	439.906790	570.410209	-103.237019	351.019609	394.397292	-79.510460	345.998978	407.635771	-156.201536	273.003936	348.210931	-113.669768	535.859242	379.903349	-131.250636	461.444094	348.890635	-61.449679	235.295413	879.329405	-418.251117	305.552690	835.902760	-399.422554	330.174914	859.604446	-382.204514	347.618017	756.200939	-389.007063	379.324420	665.502511	-365.234370	371.410070	652.071453	-267.159092	105.892847	426.837070	-399.909507	122.321805	419.818848	-327.499924	31.601716	435.523943	-365.506716	133.434399	296.444661	-428.064226	309.982431	598.261571	-395.098839	261.256533	527.159474	-388.843080	181.875830	487.382287	-397.647511	274.614451	510.561848	-354.141818	212.758847	248.659999	-358.694208	-64.841204	852.729607	-240.996222	21.215506	83.825279	-442.198363	21.188149	83.953791	-43.957122	
1001	5.0050	476.734889	1237.573810	-31.234180	543.956394	1186.477402	-369.460200	493.896619	1293.088547	-201.677504	466.847833	1161.413731	-200.869194	479.221762	1016.487798	91.173814	673.991168	907.446809	-20.329412	460.151168	1009.716793	-565.748096	660.725947	900.474678	-486.835741	8.731367	1123.606609	-274.744654	158.557520	1112.450386	-402.320063	127.704303	1143.308877	-106.643894	194.911702	1063.646793	-369.247828	176.913452	1090.166847	-116.845627	29.833946	1161.969464	-214.554007	41.050482	1160.395382	-323.825013	118.466835	1006.433063	-61.256851	136.831095	977.026673	-435.455263	238.426047	929.562445	-55.827902	321.866836	901.936405	-57.979569	376.314320	832.913610	-59.649931	340.699815	925.748677	-78.461404	446.892290	751.610617	-87.296006	446.412668	730.811404	-183.649712	406.443620	652.384816	-58.335337	410.697972	563.865003	-74.221445	370.654016	486.541890	-76.557891	438.132748	562.136935	-102.636072	351.801771	383.950485	-79.263223	346.992009	397.898917	-155.391380	274.220713	338.133111	-113.408122	537.143813	368.570767	-131.251464	462.635224	337.902808	-61.538499	236.723666	881.161905	-417.126783	307.797925	838.730487	-398.478281	332.206835	862.822571	-381.572178	351.165622	759.979865	-387.817605	384.058098	670.639779	-364.391561	375.964344	657.344998	-266.352044	105.871498	437.449331	-399.581749	122.077837	430.527273	-327.170353	31.391274	446.786455	-365.463002	132.500052	307.159590	-428.038006	313.530703	604.514359	-394.468654	263.309211	534.399489	-388.279439	183.169767	496.288259	-397.227512	275.964800	517.360985	-352.992233	211.687964	259.222787	-358.695192	-64.853985	852.828418	-240.882506	21.216357	83.842068	-442.218265	21.189177	83.936323	-43.933898	
1002	5.0100	478.800760	1238.354309	-32.870861	542.845382	1187.426134	-371.145083	494.089281	1293.884368	-202.353634	467.625899	1162.052815	-201.951598	479.907053	1017.487095	90.316040	674.195714	907.282196	-20.010326	459.238906	1008.308557	-565.967450	660.996548	900.257015	-488.149201	8.559175	1122.483929	-272.477403	157.836757	1112.941849	-400.339883	127.900583	1142.014486	-104.240152	194.599405	1063.511631	-366.529952	177.391422	1089.363645	-114.684781	29.735013	1161.037898	-211.728451	40.614140	1160.051572	-321.296410	118.127303	1002.673728	-59.656653	137.698558	977.727469	-434.384463	237.145123	924.237002	-54.173033	320.072835	894.921909	-56.599158	373.092354	824.738750	-59.589003	339.372717	918.560550	-76.900048	442.156797	743.201553	-86.863365	440.603161	722.226421	-184.183401	402.901864	643.412261	-57.996474	408.411319	554.929296	-73.891153	369.619877	476.993777	-76.406264	435.905492	553.883027	-102.287967	351.784598	373.761065	-78.942160	347.533779	387.599938	-155.027162	275.051812	327.890657	-113.317366	537.824165	357.064141	-131.166207	463.174228	326.773734	-61.545883	237.930157	883.166162	-415.913391	309.844936	842.114782	-397.859460	334.051819	866.785657	-380.868917	354.862022	764.229964	-386.259496	388.955879	676.223140	-363.642284	380.445469	662.685795	-265.462545	106.471856	448.108712	-399.340508	122.293456	441.421578	-327.176425	31.700289	458.051890	-365.422754	132.258937	318.054438	-428.134178	317.218686	610.980168	-394.009083	265.675741	541.870756	-387.836242	184.625468	505.462461	-396.744544	277.934597	524.506635	-352.488574	211.386164	270.073626	-358.720324	-64.769296	852.981782	-240.949004	21.214281	83.886516	-442.193244	21.212432	83.949513	-43.931001	
1003	5.0150	480.780557	1239.433462	-34.299090	541.801847	1188.277025	-372.859869	494.537159	1294.829706	-203.446091	468.502304	1162.871532	-203.350541	480.605592	1018.454025	89.594640	674.444566	907.174772	-19.574973	458.455959	1006.933383	-566.253749	661.275516	900.002188	-489.633991	8.834103	1121.611799	-269.657636	157.010631	1113.550313	-398.274218	128.244489	1140.621713	-101.833745	194.067960	1064.141126	-364.622090	177.918178	1088.431697	-112.680792	30.006683	1159.907271	-208.711321	40.091925	1159.854649	-318.401052	117.788996	999.046082	-58.039433	138.264221	978.518880	-433.120885	235.786606	918.726848	-52.613863	317.837961	887.690985	-55.566275	369.545226	816.318073	-59.251122	337.921355	911.035340	-75.564119	437.024477	734.273132	-86.812269	435.033268	713.629484	-183.899020	399.013435	634.107984	-57.858894	405.777677	545.889365	-73.723444	368.122763	467.192514	-76.315959	433.165899	545.298722	-102.295083	351.093594	363.667387	-78.646395	347.074986	376.660315	-155.849083	274.930439	317.913955	-113.179931	538.022253	345.733066	-131.001248	463.031943	315.720462	-61.540164	239.025162	885.355627	-414.512949	312.114124	845.961563	-396.328951	335.676058	871.439512	-380.352621	358.500528	769.129185	-384.811060	393.972116	681.919835	-363.216571	386.377344	667.924979	-264.887318	107.547322	458.829114	-399.193113	123.175622	452.160849	-326.937454	32.447179	469.217988	-365.339827	132.739000	328.952271	-428.247635	321.206052	617.672481	-393.693826	268.330811	549.588130	-387.503384	186.556331	514.697517	-396.362199	280.412767	532.176399	-352.331225	211.856040	280.900151	-358.755151	-64.720601	852.903134	-240.645623	21.202127	83.913340	-442.175553	21.205373	83.943301	-43.913322	
1004	5.0200	482.810841	1240.445109	-35.961037	540.792469	1189.023110	-374.666011	495.438149	1295.936924	-205.170778	469.669646	1163.880939	-205.265101	481.410092	1019.411434	88.786332	674.804080	907.109139	-19.032494	457.700385	1005.628349	-566.622197	661.613335	899.854013	-491.020430	7.822069	1124.143666	-264.306836	155.965604	1114.234422	-396.168484	128.784516	1139.146549	-99.307680	193.590056	1064.577600	-362.669575	178.536497	1087.279432	-110.783206	30.343563	1159.124555	-205.573283	39.338437	1159.925428	-315.098243	117.555979	995.680711	-56.099136	138.657491	979.495057	-431.676853	234.348777	913.245598	-51.154877	315.690529	880.659383	-54.542306	365.632806	807.509356	-58.495879	337.196320	902.600606	-74.625252	431.162760	724.851491	-87.572622	429.288152	704.637521	-183.704975	394.915446	624.519118	-57.974803	403.178904	536.382852	-73.627524	366.118721	457.253697	-76.390952	429.356855	536.183545	-103.197878	349.992348	353.458935	-78.494271	346.110415	366.230510	-155.628710	274.153051	307.951219	-113.034034	537.265317	333.866851	-131.163252	462.174177	304.536269	-61.534761	239.872218	887.998700	-413.231010	314.066968	850.115110	-395.552761	337.168216	876.142337	-380.030513	362.167444	774.417340	-384.284067	399.000454	687.847472	-363.001262	390.466855	673.232676	-264.209787	109.243350	469.553808	-398.993261	124.912656	462.901058	-327.181957	33.908660	480.326754	-365.324907	133.923715	339.893916	-428.265015	325.468375	624.614141	-393.485756	271.516318	557.819843	-387.404944	189.115559	524.268132	-396.450331	282.996249	539.724317	-351.863415	212.961749	291.908522	-358.692984	-64.654280	852.894764	-240.504160	21.199040	83.928749	-442.169241	21.200106	83.943343	-43.907846	
1005	5.0250	484.785808	1241.131541	-38.329508	539.779062	1189.649080	-376.471082	496.079132	1296.620216	-205.081928	469.550653	1164.665837	-205.736958	482.268552	1020.481003	88.112965	675.211938	907.032263	-18.437824	457.269217	1004.211432	-567.051151	661.947444	899.875609	-492.362460	7.100990	1123.987666	-261.746621	154.806083	1114.922086	-394.056078	129.414174	1137.641019	-96.825612	193.002141	1065.115427	-360.874651	179.248384	1086.052745	-109.040642	30.643443	1158.536492	-202.109552	38.616663	1160.107773	-311.798228	117.438285	992.687443	-53.968865	138.675402	980.889239	-430.128640	232.870065	907.683544	-50.012447	313.263303	872.966755	-53.787092	361.164737	798.554349	-58.200715	335.244038	894.722318	-73.255377	425.636568	715.309450	-87.537888	422.787508	695.218094	-183.673045	390.521912	614.760242	-58.190227	399.799328	526.782167	-73.994351	363.703111	447.247951	-76.569396	425.591023	526.920350	-103.988254	348.370094	343.331937	-78.413886	344.348138	356.251686	-155.484985	272.614885	298.341324	-113.078081	536.347170	322.849831	-130.417759	460.678490	293.288818	-61.657860	240.626050	890.965675	-412.012780	315.635448	855.224536	-395.731881	338.472705	881.365731	-380.085954	365.532147	780.199875	-384.456686	404.123951	694.028960	-362.986974	397.753410	680.272296	-263.421252	111.673828	480.222871	-398.835244	126.869667	473.734798	-326.484855	36.050778	491.412652	-365.227468	135.809581	350.758815	-428.250004	330.115947	631.801109	-393.302896	275.075623	565.829760	-387.100368	192.132378	533.724680	-396.128451	286.428335	547.657622	-351.622874	214.742585	302.603871	-358.646267	-64.612224	852.885452	-240.346303	21.204654	83.954386	-442.160865	21.208010	83.929009	-43.881784	
